<mxfile host="app.diagrams.net" modified="2023-08-25T12:42:45.009Z" agent="5.0 (Macintosh; Intel Mac OS X 10_15_7) AppleWebKit/537.36 (KHTML, like Gecko) Chrome/111.0.0.0 Safari/537.36" etag="t417S0u0DYpAMZhtlK5U" version="20.4.0" type="github">
  <diagram id="QMOpnbqXZ2mUJzAaucJ2" name="Page-1">
    <mxGraphModel dx="1018" dy="688" grid="1" gridSize="10" guides="1" tooltips="1" connect="1" arrows="1" fold="1" page="1" pageScale="1" pageWidth="827" pageHeight="1169" math="0" shadow="0">
      <root>
        <mxCell id="0" />
        <mxCell id="1" parent="0" />
        <mxCell id="WwM0dgEL5zbI4ygbFiYx-2" value="Enter Website" style="rounded=1;whiteSpace=wrap;html=1;" parent="1" vertex="1">
          <mxGeometry x="320" y="10" width="120" height="60" as="geometry" />
        </mxCell>
        <mxCell id="WwM0dgEL5zbI4ygbFiYx-3" value="" style="endArrow=classic;html=1;rounded=0;" parent="1" edge="1">
          <mxGeometry width="50" height="50" relative="1" as="geometry">
            <mxPoint x="379.5" y="70" as="sourcePoint" />
            <mxPoint x="380" y="100" as="targetPoint" />
          </mxGeometry>
        </mxCell>
        <mxCell id="WwM0dgEL5zbI4ygbFiYx-4" value="Do you have an account?" style="rhombus;whiteSpace=wrap;html=1;fillColor=#FFFFCC;strokeColor=#d6b656;" parent="1" vertex="1">
          <mxGeometry x="315" y="100" width="130" height="80" as="geometry" />
        </mxCell>
        <mxCell id="WwM0dgEL5zbI4ygbFiYx-6" value="no" style="text;html=1;align=center;verticalAlign=middle;resizable=0;points=[];autosize=1;strokeColor=none;fillColor=none;" parent="1" vertex="1">
          <mxGeometry x="260" y="125" width="40" height="30" as="geometry" />
        </mxCell>
        <mxCell id="WwM0dgEL5zbI4ygbFiYx-9" value="" style="endArrow=classic;html=1;rounded=0;entryX=0;entryY=0.5;entryDx=0;entryDy=0;" parent="1" target="WwM0dgEL5zbI4ygbFiYx-21" edge="1">
          <mxGeometry width="50" height="50" relative="1" as="geometry">
            <mxPoint x="445" y="140" as="sourcePoint" />
            <mxPoint x="495" y="140" as="targetPoint" />
            <Array as="points">
              <mxPoint x="465" y="140" />
            </Array>
          </mxGeometry>
        </mxCell>
        <mxCell id="WwM0dgEL5zbI4ygbFiYx-30" value="" style="edgeStyle=orthogonalEdgeStyle;rounded=0;orthogonalLoop=1;jettySize=auto;html=1;" parent="1" source="WwM0dgEL5zbI4ygbFiYx-21" target="WwM0dgEL5zbI4ygbFiYx-27" edge="1">
          <mxGeometry relative="1" as="geometry" />
        </mxCell>
        <mxCell id="WwM0dgEL5zbI4ygbFiYx-32" value="" style="edgeStyle=orthogonalEdgeStyle;rounded=0;orthogonalLoop=1;jettySize=auto;html=1;" parent="1" target="WwM0dgEL5zbI4ygbFiYx-27" edge="1">
          <mxGeometry relative="1" as="geometry">
            <mxPoint x="560" y="160" as="sourcePoint" />
          </mxGeometry>
        </mxCell>
        <mxCell id="WwM0dgEL5zbI4ygbFiYx-10" value="yes" style="text;html=1;align=center;verticalAlign=middle;resizable=0;points=[];autosize=1;strokeColor=none;fillColor=none;" parent="1" vertex="1">
          <mxGeometry x="445" y="110" width="40" height="30" as="geometry" />
        </mxCell>
        <mxCell id="WwM0dgEL5zbI4ygbFiYx-13" value="Can only view recipes anonymously&amp;nbsp;" style="rounded=0;whiteSpace=wrap;html=1;fillColor=#FFCCFC;" parent="1" vertex="1">
          <mxGeometry x="120" y="30" width="120" height="60" as="geometry" />
        </mxCell>
        <mxCell id="WwM0dgEL5zbI4ygbFiYx-14" value="" style="endArrow=classic;html=1;rounded=0;" parent="1" edge="1">
          <mxGeometry width="50" height="50" relative="1" as="geometry">
            <mxPoint x="315" y="140" as="sourcePoint" />
            <mxPoint x="240" y="90" as="targetPoint" />
          </mxGeometry>
        </mxCell>
        <mxCell id="WwM0dgEL5zbI4ygbFiYx-16" value="" style="endArrow=classic;html=1;rounded=0;entryX=1;entryY=0;entryDx=0;entryDy=0;" parent="1" target="WwM0dgEL5zbI4ygbFiYx-17" edge="1">
          <mxGeometry width="50" height="50" relative="1" as="geometry">
            <mxPoint x="315" y="140" as="sourcePoint" />
            <mxPoint x="235" y="190" as="targetPoint" />
          </mxGeometry>
        </mxCell>
        <mxCell id="WwM0dgEL5zbI4ygbFiYx-17" value="Sign Up" style="rounded=0;whiteSpace=wrap;html=1;fillColor=#FFCCFC;" parent="1" vertex="1">
          <mxGeometry x="110" y="190" width="120" height="60" as="geometry" />
        </mxCell>
        <mxCell id="WwM0dgEL5zbI4ygbFiYx-19" value="" style="endArrow=classic;html=1;rounded=0;" parent="1" edge="1">
          <mxGeometry width="50" height="50" relative="1" as="geometry">
            <mxPoint x="169.5" y="250" as="sourcePoint" />
            <mxPoint x="170" y="280" as="targetPoint" />
          </mxGeometry>
        </mxCell>
        <mxCell id="WwM0dgEL5zbI4ygbFiYx-20" value="Fill in form&lt;br&gt;username, email, password" style="rounded=0;whiteSpace=wrap;html=1;fillColor=#FFCCFC;" parent="1" vertex="1">
          <mxGeometry x="110" y="280" width="120" height="60" as="geometry" />
        </mxCell>
        <mxCell id="WwM0dgEL5zbI4ygbFiYx-21" value="Sign In" style="rounded=0;whiteSpace=wrap;html=1;fillColor=#FFCCFC;" parent="1" vertex="1">
          <mxGeometry x="500" y="110" width="120" height="60" as="geometry" />
        </mxCell>
        <mxCell id="WwM0dgEL5zbI4ygbFiYx-22" value="Submit sign up form" style="rounded=0;whiteSpace=wrap;html=1;fillColor=#FFCCFC;" parent="1" vertex="1">
          <mxGeometry x="110" y="370" width="120" height="60" as="geometry" />
        </mxCell>
        <mxCell id="WwM0dgEL5zbI4ygbFiYx-24" value="" style="endArrow=classic;html=1;rounded=0;" parent="1" edge="1">
          <mxGeometry width="50" height="50" relative="1" as="geometry">
            <mxPoint x="169.5" y="340" as="sourcePoint" />
            <mxPoint x="170" y="370" as="targetPoint" />
          </mxGeometry>
        </mxCell>
        <mxCell id="WwM0dgEL5zbI4ygbFiYx-25" value="" style="endArrow=classic;html=1;rounded=0;entryX=0;entryY=1;entryDx=0;entryDy=0;" parent="1" target="WwM0dgEL5zbI4ygbFiYx-21" edge="1">
          <mxGeometry width="50" height="50" relative="1" as="geometry">
            <mxPoint x="230" y="370" as="sourcePoint" />
            <mxPoint x="280" y="320" as="targetPoint" />
          </mxGeometry>
        </mxCell>
        <mxCell id="WwM0dgEL5zbI4ygbFiYx-26" value="" style="endArrow=classic;html=1;rounded=0;" parent="1" edge="1">
          <mxGeometry width="50" height="50" relative="1" as="geometry">
            <mxPoint x="560" y="170" as="sourcePoint" />
            <mxPoint x="560.5" y="200" as="targetPoint" />
          </mxGeometry>
        </mxCell>
        <mxCell id="WwM0dgEL5zbI4ygbFiYx-27" value="Enter username and password" style="rounded=0;whiteSpace=wrap;html=1;fillColor=#FFCCFC;" parent="1" vertex="1">
          <mxGeometry x="500" y="200" width="120" height="60" as="geometry" />
        </mxCell>
        <mxCell id="WwM0dgEL5zbI4ygbFiYx-28" value="" style="endArrow=classic;html=1;rounded=0;" parent="1" edge="1">
          <mxGeometry width="50" height="50" relative="1" as="geometry">
            <mxPoint x="560" y="260" as="sourcePoint" />
            <mxPoint x="560.5" y="290" as="targetPoint" />
          </mxGeometry>
        </mxCell>
        <mxCell id="WwM0dgEL5zbI4ygbFiYx-29" value="Is the username and password valid?" style="rhombus;whiteSpace=wrap;html=1;fillColor=#FFFFCC;strokeColor=#d6b656;" parent="1" vertex="1">
          <mxGeometry x="495" y="290" width="130" height="80" as="geometry" />
        </mxCell>
        <mxCell id="WwM0dgEL5zbI4ygbFiYx-33" value="" style="endArrow=classic;html=1;rounded=0;entryX=1;entryY=0.5;entryDx=0;entryDy=0;" parent="1" target="WwM0dgEL5zbI4ygbFiYx-21" edge="1">
          <mxGeometry width="50" height="50" relative="1" as="geometry">
            <mxPoint x="680" y="140" as="sourcePoint" />
            <mxPoint x="735" y="140" as="targetPoint" />
            <Array as="points" />
          </mxGeometry>
        </mxCell>
        <mxCell id="WwM0dgEL5zbI4ygbFiYx-34" value="" style="endArrow=none;html=1;rounded=0;" parent="1" edge="1">
          <mxGeometry width="50" height="50" relative="1" as="geometry">
            <mxPoint x="680" y="330" as="sourcePoint" />
            <mxPoint x="680" y="140" as="targetPoint" />
          </mxGeometry>
        </mxCell>
        <mxCell id="WwM0dgEL5zbI4ygbFiYx-35" value="" style="endArrow=none;html=1;rounded=0;" parent="1" edge="1">
          <mxGeometry width="50" height="50" relative="1" as="geometry">
            <mxPoint x="625" y="329.5" as="sourcePoint" />
            <mxPoint x="680" y="330" as="targetPoint" />
            <Array as="points">
              <mxPoint x="655" y="329.5" />
            </Array>
          </mxGeometry>
        </mxCell>
        <mxCell id="WwM0dgEL5zbI4ygbFiYx-36" value="no" style="text;html=1;align=center;verticalAlign=middle;resizable=0;points=[];autosize=1;strokeColor=none;fillColor=none;" parent="1" vertex="1">
          <mxGeometry x="625" y="300" width="40" height="30" as="geometry" />
        </mxCell>
        <mxCell id="WwM0dgEL5zbI4ygbFiYx-38" value="" style="endArrow=classic;html=1;rounded=0;" parent="1" edge="1">
          <mxGeometry width="50" height="50" relative="1" as="geometry">
            <mxPoint x="559.5" y="370" as="sourcePoint" />
            <mxPoint x="560" y="400" as="targetPoint" />
          </mxGeometry>
        </mxCell>
        <mxCell id="WwM0dgEL5zbI4ygbFiYx-39" value="Signed into Cake, Cookies and Crumble" style="rounded=0;whiteSpace=wrap;html=1;fillColor=#FFCCFC;" parent="1" vertex="1">
          <mxGeometry x="505" y="400" width="120" height="60" as="geometry" />
        </mxCell>
        <mxCell id="WwM0dgEL5zbI4ygbFiYx-41" value="" style="endArrow=classic;html=1;rounded=0;" parent="1" edge="1">
          <mxGeometry width="50" height="50" relative="1" as="geometry">
            <mxPoint x="505" y="460" as="sourcePoint" />
            <mxPoint x="470" y="490" as="targetPoint" />
          </mxGeometry>
        </mxCell>
        <mxCell id="WwM0dgEL5zbI4ygbFiYx-42" value="yes" style="text;html=1;align=center;verticalAlign=middle;resizable=0;points=[];autosize=1;strokeColor=none;fillColor=none;" parent="1" vertex="1">
          <mxGeometry x="560" y="370" width="40" height="30" as="geometry" />
        </mxCell>
        <mxCell id="WwM0dgEL5zbI4ygbFiYx-43" value="" style="endArrow=classic;html=1;rounded=0;entryX=0;entryY=0;entryDx=0;entryDy=0;" parent="1" target="WwM0dgEL5zbI4ygbFiYx-45" edge="1">
          <mxGeometry width="50" height="50" relative="1" as="geometry">
            <mxPoint x="625" y="460" as="sourcePoint" />
            <mxPoint x="655" y="490" as="targetPoint" />
          </mxGeometry>
        </mxCell>
        <mxCell id="WwM0dgEL5zbI4ygbFiYx-44" value="Create a recipe" style="rounded=0;whiteSpace=wrap;html=1;fillColor=#FFCCFC;" parent="1" vertex="1">
          <mxGeometry x="350" y="490" width="120" height="60" as="geometry" />
        </mxCell>
        <mxCell id="WwM0dgEL5zbI4ygbFiYx-45" value="Make a Rating" style="rounded=0;whiteSpace=wrap;html=1;fillColor=#FFCCFC;" parent="1" vertex="1">
          <mxGeometry x="660" y="490" width="120" height="60" as="geometry" />
        </mxCell>
        <mxCell id="WwM0dgEL5zbI4ygbFiYx-49" value="" style="endArrow=classic;html=1;rounded=0;" parent="1" edge="1">
          <mxGeometry width="50" height="50" relative="1" as="geometry">
            <mxPoint x="564.5" y="460" as="sourcePoint" />
            <mxPoint x="565" y="490" as="targetPoint" />
          </mxGeometry>
        </mxCell>
        <mxCell id="WwM0dgEL5zbI4ygbFiYx-50" value="Favourite a recipe" style="rounded=0;whiteSpace=wrap;html=1;fillColor=#FFCCFC;" parent="1" vertex="1">
          <mxGeometry x="510" y="490" width="120" height="60" as="geometry" />
        </mxCell>
        <mxCell id="oI84TkCdfc1JNpRO27uY-2" value="" style="endArrow=classic;html=1;rounded=0;" edge="1" parent="1">
          <mxGeometry width="50" height="50" relative="1" as="geometry">
            <mxPoint x="350" y="519.5" as="sourcePoint" />
            <mxPoint x="310" y="519.5" as="targetPoint" />
          </mxGeometry>
        </mxCell>
        <mxCell id="oI84TkCdfc1JNpRO27uY-3" value="" style="endArrow=classic;html=1;rounded=0;" edge="1" parent="1">
          <mxGeometry width="50" height="50" relative="1" as="geometry">
            <mxPoint x="414" y="550" as="sourcePoint" />
            <mxPoint x="414" y="590" as="targetPoint" />
          </mxGeometry>
        </mxCell>
        <mxCell id="oI84TkCdfc1JNpRO27uY-4" value="Edit your recipe" style="rounded=0;whiteSpace=wrap;html=1;fillColor=#FFCCFC;" vertex="1" parent="1">
          <mxGeometry x="190" y="490" width="120" height="60" as="geometry" />
        </mxCell>
        <mxCell id="oI84TkCdfc1JNpRO27uY-5" value="Delete your recipe" style="rounded=0;whiteSpace=wrap;html=1;fillColor=#FFCCFC;" vertex="1" parent="1">
          <mxGeometry x="354" y="590" width="120" height="60" as="geometry" />
        </mxCell>
        <mxCell id="oI84TkCdfc1JNpRO27uY-8" value="" style="endArrow=classic;html=1;rounded=0;" edge="1" parent="1">
          <mxGeometry width="50" height="50" relative="1" as="geometry">
            <mxPoint x="570" y="550" as="sourcePoint" />
            <mxPoint x="569.5" y="585" as="targetPoint" />
          </mxGeometry>
        </mxCell>
        <mxCell id="oI84TkCdfc1JNpRO27uY-9" value="Unfavourite a recipe" style="rounded=0;whiteSpace=wrap;html=1;fillColor=#FFCCFC;" vertex="1" parent="1">
          <mxGeometry x="510" y="585" width="120" height="60" as="geometry" />
        </mxCell>
      </root>
    </mxGraphModel>
  </diagram>
</mxfile>
